<svg width="215" height="49" viewBox="0 0 215 49" fill="none" xmlns="http://www.w3.org/2000/svg">
<path d="M45.9351 37.9687C45.5176 37.3125 32.0915 16.2145 31.6777 15.5644V8.61328C34.0524 8.61328 35.9844 6.68132 35.9844 4.30664C35.9844 1.93196 34.0525 0 31.6777 0H17.3223C14.9476 0 13.0156 1.93196 13.0156 4.30664C13.0156 6.68132 14.9476 8.61328 17.3223 8.61328V15.5644L3.065 37.9687C0.0206857 42.7528 3.45097 49 9.12062 49H39.8795C45.55 49 48.979 42.7519 45.9351 37.9687ZM19.969 16.7531C20.1156 16.5228 20.1935 16.2555 20.1935 15.9824V8.61328C20.9863 8.61328 21.629 7.97054 21.629 7.17773C21.629 6.38493 20.9863 5.74219 20.1935 5.74219H17.3224C16.5308 5.74219 15.8868 5.0982 15.8868 4.30664C15.8868 3.51508 16.5308 2.87109 17.3224 2.87109H31.6778C32.4694 2.87109 33.1134 3.51508 33.1134 4.30664C33.1134 5.0982 32.4694 5.74219 31.6778 5.74219H28.8067C28.0139 5.74219 27.3712 6.38493 27.3712 7.17773C27.3712 7.97054 28.0139 8.61328 28.8067 8.61328V15.9824C28.8067 16.2555 28.8846 16.5228 29.0312 16.7531L32.9342 22.8864C29.5936 22.1717 26.0397 22.801 23.0757 24.7771L18.59 27.7676C16.6002 29.0941 14.2486 29.6558 11.9226 29.3978L19.969 16.7531ZM39.8795 46.1289H9.12062C5.71837 46.1289 3.66085 42.3801 5.48725 39.5102L10.2496 32.0264C11.1708 32.2294 12.1022 32.3315 13.0295 32.3315C15.5453 32.3315 18.0289 31.5921 20.1823 30.1565L24.668 27.166C27.9656 24.9676 32.2013 24.9109 35.5481 26.9943L43.5127 39.5102C45.3396 42.3805 43.2813 46.1289 39.8795 46.1289Z" fill="black"/>
<path d="M15.8867 34.6445C13.512 34.6445 11.5801 36.5765 11.5801 38.9512C11.5801 41.3259 13.512 43.2578 15.8867 43.2578C18.2614 43.2578 20.1934 41.3259 20.1934 38.9512C20.1934 36.5765 18.2615 34.6445 15.8867 34.6445ZM15.8867 40.3867C15.0952 40.3867 14.4512 39.7427 14.4512 38.9512C14.4512 38.1596 15.0952 37.5156 15.8867 37.5156C16.6783 37.5156 17.3223 38.1596 17.3223 38.9512C17.3223 39.7427 16.6784 40.3867 15.8867 40.3867Z" fill="black"/>
<path d="M30.2422 28.9023C27.8675 28.9023 25.9355 30.8343 25.9355 33.209C25.9355 35.5837 27.8675 37.5156 30.2422 37.5156C32.6169 37.5156 34.5488 35.5837 34.5488 33.209C34.5488 30.8343 32.617 28.9023 30.2422 28.9023ZM30.2422 34.6445C29.4506 34.6445 28.8066 34.0005 28.8066 33.209C28.8066 32.4174 29.4506 31.7734 30.2422 31.7734C31.0337 31.7734 31.6777 32.4174 31.6777 33.209C31.6777 34.0005 31.0338 34.6445 30.2422 34.6445Z" fill="black"/>
<path d="M24.5 40.3867C25.2928 40.3867 25.9355 39.744 25.9355 38.9512C25.9355 38.1583 25.2928 37.5156 24.5 37.5156C23.7072 37.5156 23.0645 38.1583 23.0645 38.9512C23.0645 39.744 23.7072 40.3867 24.5 40.3867Z" fill="black"/>
<path d="M35.9844 40.3867C36.7772 40.3867 37.4199 39.744 37.4199 38.9512C37.4199 38.1583 36.7772 37.5156 35.9844 37.5156C35.1915 37.5156 34.5488 38.1583 34.5488 38.9512C34.5488 39.744 35.1915 40.3867 35.9844 40.3867Z" fill="black"/>
<path d="M30.2422 43.2578C31.035 43.2578 31.6777 42.6151 31.6777 41.8223C31.6777 41.0294 31.035 40.3867 30.2422 40.3867C29.4494 40.3867 28.8066 41.0294 28.8066 41.8223C28.8066 42.6151 29.4494 43.2578 30.2422 43.2578Z" fill="black"/>
<path d="M77.4609 20.1875C78.6719 20.1875 79.9453 20.2305 81.2812 20.3164C82.6172 20.4023 84.0234 20.5703 85.5 20.8203V23.7969C84.9766 23.6484 84.3789 23.5078 83.707 23.375C83.1289 23.2656 82.4336 23.1602 81.6211 23.0586C80.8086 22.957 79.8906 22.8906 78.8672 22.8594V38.0234H76.0781V22.8594C75.0547 22.8906 74.1367 22.957 73.3242 23.0586C72.5117 23.1602 71.8164 23.2656 71.2383 23.375C70.5664 23.5078 69.9688 23.6484 69.4453 23.7969V20.8203C70.9062 20.5703 72.3125 20.4023 73.6641 20.3164C75.0156 20.2305 76.2812 20.1875 77.4609 20.1875ZM96.0469 24.6406C96.4453 24.6406 96.9258 24.6602 97.4883 24.6992C98.0508 24.7383 98.6328 24.8086 99.2344 24.9102C99.8438 25.0039 100.445 25.1406 101.039 25.3203C101.633 25.4922 102.164 25.7148 102.633 25.9883C103.109 26.2617 103.492 26.5938 103.781 26.9844C104.078 27.3672 104.227 27.8203 104.227 28.3438V32.3047H90.7969V35.3047C91.7422 35.4375 92.6523 35.5312 93.5273 35.5859C94.4023 35.6328 95.2422 35.6562 96.0469 35.6562C97.2734 35.6562 98.3828 35.6094 99.375 35.5156C100.375 35.4219 101.238 35.3164 101.965 35.1992C102.801 35.0664 103.555 34.9141 104.227 34.7422V37.3438C102.742 37.5781 101.309 37.7461 99.9258 37.8477C98.5508 37.9492 97.2578 38 96.0469 38C94.8281 38 93.7227 37.9688 92.7305 37.9062C91.7383 37.8359 90.8867 37.7578 90.1758 37.6719C89.3477 37.5781 88.6016 37.4688 87.9375 37.3438V28.3438C87.9375 27.8203 88.0664 27.3672 88.3242 26.9844C88.582 26.5938 88.9258 26.2617 89.3555 25.9883C89.7852 25.7148 90.2773 25.4922 90.832 25.3203C91.3945 25.1406 91.9766 25.0039 92.5781 24.9102C93.1797 24.8086 93.7773 24.7383 94.3711 24.6992C94.9727 24.6602 95.5312 24.6406 96.0469 24.6406ZM90.7969 30.4297H101.32V29.0703C101.32 28.75 101.242 28.4766 101.086 28.25C100.93 28.0156 100.719 27.8203 100.453 27.6641C100.195 27.5078 99.8906 27.3828 99.5391 27.2891C99.1953 27.1875 98.8359 27.1133 98.4609 27.0664C98.0859 27.0117 97.707 26.9766 97.3242 26.9609C96.9492 26.9453 96.5938 26.9375 96.2578 26.9375C95.9062 26.9375 95.5273 26.9453 95.1211 26.9609C94.7227 26.9766 94.3203 27.0117 93.9141 27.0664C93.5078 27.1211 93.1172 27.1992 92.7422 27.3008C92.3672 27.3945 92.0352 27.5234 91.7461 27.6875C91.457 27.8438 91.2266 28.0391 91.0547 28.2734C90.8828 28.5 90.7969 28.7734 90.7969 29.0938V30.4297ZM121.008 33.2188C120.812 33.0469 120.57 32.8789 120.281 32.7148C119.992 32.5508 119.637 32.4062 119.215 32.2812C118.793 32.1484 118.289 32.043 117.703 31.9648C117.125 31.8789 116.445 31.8359 115.664 31.8359C114.969 31.8359 114.309 31.8516 113.684 31.8828C113.066 31.9062 112.523 31.9844 112.055 32.1172C111.586 32.2422 111.215 32.4453 110.941 32.7266C110.668 33.0078 110.531 33.3984 110.531 33.8984V35.3984C111.219 35.5078 111.977 35.5977 112.805 35.668C113.633 35.7383 114.555 35.7734 115.57 35.7734C116.383 35.7734 117.246 35.7461 118.16 35.6914C119.082 35.6289 120.031 35.5078 121.008 35.3281V33.2188ZM115.734 24.6406C116.125 24.6406 116.598 24.6602 117.152 24.6992C117.707 24.7383 118.285 24.8086 118.887 24.9102C119.488 25.0039 120.082 25.1367 120.668 25.3086C121.262 25.4727 121.793 25.6914 122.262 25.9648C122.738 26.2305 123.121 26.5508 123.41 26.9258C123.699 27.3008 123.844 27.7422 123.844 28.25V37.3203C123.188 37.4531 122.445 37.5664 121.617 37.6602C120.906 37.7461 120.059 37.8242 119.074 37.8945C118.09 37.9648 116.992 38 115.781 38C114.578 38 113.297 37.9492 111.938 37.8477C110.586 37.7461 109.172 37.5703 107.695 37.3203V33.1016C107.695 32.6484 107.801 32.2539 108.012 31.918C108.23 31.5742 108.527 31.2812 108.902 31.0391C109.277 30.7969 109.719 30.5977 110.227 30.4414C110.734 30.2852 111.281 30.1602 111.867 30.0664C112.453 29.9727 113.062 29.9102 113.695 29.8789C114.328 29.8398 114.961 29.8203 115.594 29.8203C116.555 29.8203 117.371 29.8828 118.043 30.0078C118.723 30.125 119.285 30.2539 119.73 30.3945C120.246 30.5664 120.672 30.7578 121.008 30.9688V29.0703C121.008 28.75 120.93 28.4766 120.773 28.25C120.617 28.0156 120.406 27.8203 120.141 27.6641C119.875 27.5 119.57 27.3711 119.227 27.2773C118.883 27.1758 118.523 27.0977 118.148 27.043C117.773 26.9883 117.391 26.9531 117 26.9375C116.617 26.9219 116.258 26.9141 115.922 26.9141C115.57 26.9141 115.195 26.9258 114.797 26.9492C114.398 26.9648 114 27 113.602 27.0547C113.211 27.1094 112.832 27.1875 112.465 27.2891C112.105 27.3828 111.785 27.5117 111.504 27.6758C111.223 27.8398 110.996 28.0391 110.824 28.2734C110.66 28.5 110.578 28.7734 110.578 29.0938L107.672 28.3438C107.672 27.8203 107.801 27.3672 108.059 26.9844C108.316 26.5938 108.656 26.2617 109.078 25.9883C109.508 25.7148 110 25.4922 110.555 25.3203C111.109 25.1406 111.684 25.0039 112.277 24.9102C112.879 24.8086 113.477 24.7383 114.07 24.6992C114.664 24.6602 115.219 24.6406 115.734 24.6406ZM135.234 24.4297C135.883 24.4297 136.535 24.4609 137.191 24.5234C137.848 24.5859 138.477 24.6875 139.078 24.8281C139.68 24.9688 140.242 25.1445 140.766 25.3555C141.289 25.5664 141.742 25.8203 142.125 26.1172C142.516 26.4141 142.82 26.7578 143.039 27.1484C143.258 27.5312 143.367 27.9609 143.367 28.4375L140.367 28.8828C140.367 28.5469 140.223 28.2461 139.934 27.9805C139.645 27.707 139.262 27.4805 138.785 27.3008C138.309 27.1133 137.762 26.9727 137.145 26.8789C136.527 26.7773 135.891 26.7266 135.234 26.7266C134.609 26.7266 133.992 26.7734 133.383 26.8672C132.773 26.9531 132.227 27.0859 131.742 27.2656C131.266 27.4453 130.875 27.6719 130.57 27.9453C130.273 28.2109 130.125 28.5234 130.125 28.8828V33.7578C130.125 34.1172 130.273 34.4297 130.57 34.6953C130.875 34.9531 131.266 35.1719 131.742 35.3516C132.227 35.5234 132.773 35.6523 133.383 35.7383C133.992 35.8242 134.609 35.8672 135.234 35.8672C135.891 35.8672 136.527 35.8203 137.145 35.7266C137.762 35.6328 138.309 35.5 138.785 35.3281C139.262 35.1484 139.645 34.9297 139.934 34.6719C140.223 34.4062 140.367 34.1016 140.367 33.7578L143.367 34.5078C143.367 34.9297 143.258 35.3164 143.039 35.668C142.82 36.0195 142.516 36.3359 142.125 36.6172C141.742 36.8906 141.289 37.1289 140.766 37.332C140.242 37.5352 139.68 37.7031 139.078 37.8359C138.477 37.9688 137.848 38.0664 137.191 38.1289C136.535 38.1992 135.883 38.2344 135.234 38.2344C134.586 38.2344 133.934 38.1992 133.277 38.1289C132.629 38.0664 132.004 37.9688 131.402 37.8359C130.801 37.7031 130.238 37.5352 129.715 37.332C129.199 37.1289 128.746 36.8906 128.355 36.6172C127.973 36.3359 127.672 36.0234 127.453 35.6797C127.234 35.3281 127.125 34.9375 127.125 34.5078V28.4375C127.125 27.9609 127.234 27.5312 127.453 27.1484C127.672 26.7578 127.973 26.4141 128.355 26.1172C128.746 25.8203 129.199 25.5664 129.715 25.3555C130.238 25.1445 130.801 24.9688 131.402 24.8281C132.004 24.6875 132.629 24.5859 133.277 24.5234C133.934 24.4609 134.586 24.4297 135.234 24.4297ZM154.5 24.6406C155.703 24.6406 156.734 24.7422 157.594 24.9453C158.453 25.1406 159.156 25.4375 159.703 25.8359C160.258 26.2266 160.66 26.7148 160.91 27.3008C161.168 27.8867 161.297 28.5703 161.297 29.3516V38H158.227V30.0781C158.227 29.6406 158.168 29.2656 158.051 28.9531C157.934 28.6328 157.773 28.3633 157.57 28.1445C157.375 27.918 157.145 27.7344 156.879 27.5938C156.613 27.4531 156.336 27.3477 156.047 27.2773C155.766 27.1992 155.477 27.1484 155.18 27.125C154.883 27.0938 154.602 27.0781 154.336 27.0781C153.836 27.0781 153.359 27.1133 152.906 27.1836C152.453 27.2539 152.023 27.3516 151.617 27.4766C151.211 27.5938 150.828 27.7344 150.469 27.8984C150.109 28.0625 149.773 28.2344 149.461 28.4141V38H146.391V20.1641H149.461V26.1875C149.82 25.9688 150.188 25.7656 150.562 25.5781C150.938 25.3906 151.328 25.2266 151.734 25.0859C152.148 24.9453 152.582 24.8359 153.035 24.7578C153.496 24.6797 153.984 24.6406 154.5 24.6406ZM173.016 24.6406C173.414 24.6406 173.895 24.6602 174.457 24.6992C175.02 24.7383 175.602 24.8086 176.203 24.9102C176.812 25.0039 177.414 25.1406 178.008 25.3203C178.602 25.4922 179.133 25.7148 179.602 25.9883C180.078 26.2617 180.461 26.5938 180.75 26.9844C181.047 27.3672 181.195 27.8203 181.195 28.3438V32.3047H167.766V35.3047C168.711 35.4375 169.621 35.5312 170.496 35.5859C171.371 35.6328 172.211 35.6562 173.016 35.6562C174.242 35.6562 175.352 35.6094 176.344 35.5156C177.344 35.4219 178.207 35.3164 178.934 35.1992C179.77 35.0664 180.523 34.9141 181.195 34.7422V37.3438C179.711 37.5781 178.277 37.7461 176.895 37.8477C175.52 37.9492 174.227 38 173.016 38C171.797 38 170.691 37.9688 169.699 37.9062C168.707 37.8359 167.855 37.7578 167.145 37.6719C166.316 37.5781 165.57 37.4688 164.906 37.3438V28.3438C164.906 27.8203 165.035 27.3672 165.293 26.9844C165.551 26.5938 165.895 26.2617 166.324 25.9883C166.754 25.7148 167.246 25.4922 167.801 25.3203C168.363 25.1406 168.945 25.0039 169.547 24.9102C170.148 24.8086 170.746 24.7383 171.34 24.6992C171.941 24.6602 172.5 24.6406 173.016 24.6406ZM167.766 30.4297H178.289V29.0703C178.289 28.75 178.211 28.4766 178.055 28.25C177.898 28.0156 177.688 27.8203 177.422 27.6641C177.164 27.5078 176.859 27.3828 176.508 27.2891C176.164 27.1875 175.805 27.1133 175.43 27.0664C175.055 27.0117 174.676 26.9766 174.293 26.9609C173.918 26.9453 173.562 26.9375 173.227 26.9375C172.875 26.9375 172.496 26.9453 172.09 26.9609C171.691 26.9766 171.289 27.0117 170.883 27.0664C170.477 27.1211 170.086 27.1992 169.711 27.3008C169.336 27.3945 169.004 27.5234 168.715 27.6875C168.426 27.8438 168.195 28.0391 168.023 28.2734C167.852 28.5 167.766 28.7734 167.766 29.0938V30.4297ZM196.594 24.5469C197.797 24.5469 198.883 24.6484 199.852 24.8516C200.82 25.0469 201.645 25.3438 202.324 25.7422C203.004 26.1406 203.527 26.6367 203.895 27.2305C204.262 27.8164 204.445 28.5 204.445 29.2812V38H201.375V29.9844C201.375 29.3359 201.234 28.8086 200.953 28.4023C200.672 27.9883 200.301 27.6641 199.84 27.4297C199.379 27.1953 198.855 27.0352 198.27 26.9492C197.684 26.8633 197.086 26.8203 196.477 26.8203V38H193.641V26.8203C193.133 26.8203 192.645 26.8633 192.176 26.9492C191.715 27.0273 191.277 27.1367 190.863 27.2773C190.449 27.418 190.059 27.5781 189.691 27.7578C189.324 27.9375 188.984 28.125 188.672 28.3203V38H185.602V28.3203C185.57 28.0703 185.496 27.8594 185.379 27.6875C185.27 27.5156 185.148 27.375 185.016 27.2656C184.867 27.1328 184.703 27.0234 184.523 26.9375L185.836 24.6406C186.125 24.7422 186.41 24.875 186.691 25.0391C186.934 25.1797 187.188 25.3633 187.453 25.5898C187.719 25.8164 187.953 26.0938 188.156 26.4219C188.789 26.0391 189.398 25.7266 189.984 25.4844C190.57 25.2344 191.188 25.043 191.836 24.9102C192.484 24.7695 193.191 24.6758 193.957 24.6289C194.723 24.5742 195.602 24.5469 196.594 24.5469ZM211.875 38H208.898V24.6406H211.875V38ZM210.398 20C210.977 20 211.434 20.0977 211.77 20.293C212.105 20.4805 212.273 20.7812 212.273 21.1953V21.7812C212.273 22.1562 212.105 22.4258 211.77 22.5898C211.434 22.7539 210.977 22.8359 210.398 22.8359C209.844 22.8359 209.395 22.7539 209.051 22.5898C208.715 22.4258 208.547 22.1562 208.547 21.7812V21.1953C208.547 20.7812 208.715 20.4805 209.051 20.293C209.395 20.0977 209.844 20 210.398 20Z" fill="black"/>
</svg>
