<svg width="147" height="45" viewBox="0 0 147 45" fill="none" xmlns="http://www.w3.org/2000/svg">
<path d="M57.3828 36H52.3379V10.793H69.9863V15.8379H57.3828V20.8828H64.9414V25.9277H57.3828V36ZM88.0566 26.4199C88.0566 27.8262 87.8047 29.1387 87.3008 30.3574C86.7969 31.5645 86.1113 32.6133 85.2441 33.5039C84.377 34.3828 83.3574 35.0801 82.1855 35.5957C81.0254 36.0996 79.7773 36.3516 78.4414 36.3516C77.1172 36.3516 75.8691 36.0996 74.6973 35.5957C73.5371 35.0801 72.5176 34.3828 71.6387 33.5039C70.7715 32.6133 70.0859 31.5645 69.582 30.3574C69.0781 29.1387 68.8262 27.8262 68.8262 26.4199C68.8262 24.9902 69.0781 23.666 69.582 22.4473C70.0859 21.2285 70.7715 20.1797 71.6387 19.3008C72.5176 18.4102 73.5371 17.7129 74.6973 17.209C75.8691 16.7051 77.1172 16.4531 78.4414 16.4531C79.7773 16.4531 81.0254 16.6934 82.1855 17.1738C83.3574 17.6426 84.377 18.3164 85.2441 19.1953C86.1113 20.0625 86.7969 21.1113 87.3008 22.3418C87.8047 23.5605 88.0566 24.9199 88.0566 26.4199ZM83.2227 26.4199C83.2227 25.6465 83.0938 24.9492 82.8359 24.3281C82.5898 23.6953 82.25 23.1562 81.8164 22.7109C81.3828 22.2539 80.873 21.9082 80.2871 21.6738C79.7129 21.4277 79.0977 21.3047 78.4414 21.3047C77.7852 21.3047 77.1641 21.4277 76.5781 21.6738C76.0039 21.9082 75.5 22.2539 75.0664 22.7109C74.6445 23.1562 74.3105 23.6953 74.0645 24.3281C73.8184 24.9492 73.6953 25.6465 73.6953 26.4199C73.6953 27.1465 73.8184 27.8203 74.0645 28.4414C74.3105 29.0625 74.6445 29.6016 75.0664 30.0586C75.5 30.5156 76.0039 30.8789 76.5781 31.1484C77.1641 31.4062 77.7852 31.5352 78.4414 31.5352C79.0977 31.5352 79.7129 31.4121 80.2871 31.166C80.873 30.9199 81.3828 30.5742 81.8164 30.1289C82.25 29.6836 82.5898 29.1445 82.8359 28.5117C83.0938 27.8789 83.2227 27.1816 83.2227 26.4199ZM107.164 20.918L103.648 24.4512C103.473 23.959 103.232 23.5195 102.928 23.1328C102.623 22.7344 102.277 22.4004 101.891 22.1309C101.516 21.8613 101.105 21.6562 100.66 21.5156C100.215 21.375 99.7578 21.3047 99.2891 21.3047C98.6328 21.3047 98.0117 21.4395 97.4258 21.709C96.8516 21.9785 96.3477 22.3594 95.9141 22.8516C95.4922 23.332 95.1582 23.9062 94.9121 24.5742C94.666 25.2422 94.543 25.9805 94.543 26.7891C94.543 27.4453 94.666 28.0605 94.9121 28.6348C95.1582 29.209 95.4922 29.7129 95.9141 30.1465C96.3477 30.5801 96.8516 30.9199 97.4258 31.166C98.0117 31.4121 98.6328 31.5352 99.2891 31.5352C99.7578 31.5352 100.209 31.4707 100.643 31.3418C101.076 31.2129 101.48 31.0312 101.855 30.7969C102.242 30.5508 102.582 30.2578 102.875 29.918C103.18 29.5664 103.426 29.1797 103.613 28.7578L107.129 32.291C106.684 32.9238 106.168 33.4922 105.582 33.9961C105.008 34.5 104.381 34.9277 103.701 35.2793C103.033 35.6309 102.324 35.8945 101.574 36.0703C100.836 36.2578 100.074 36.3516 99.2891 36.3516C97.9648 36.3516 96.7168 36.1055 95.5449 35.6133C94.3848 35.1094 93.3652 34.4238 92.4863 33.5566C91.6191 32.6895 90.9336 31.6758 90.4297 30.5156C89.9258 29.3555 89.6738 28.1133 89.6738 26.7891C89.6738 25.3477 89.9258 24 90.4297 22.7461C90.9336 21.4922 91.6191 20.4023 92.4863 19.4766C93.3652 18.5391 94.3848 17.8008 95.5449 17.2617C96.7168 16.7227 97.9648 16.4531 99.2891 16.4531C100.074 16.4531 100.842 16.5527 101.592 16.752C102.354 16.9512 103.074 17.2441 103.754 17.6309C104.445 18.0059 105.078 18.4688 105.652 19.0195C106.238 19.5703 106.742 20.2031 107.164 20.918ZM123.354 33.8027C122.967 34.1543 122.551 34.4883 122.105 34.8047C121.672 35.1094 121.215 35.3789 120.734 35.6133C120.254 35.8359 119.756 36.0117 119.24 36.1406C118.736 36.2812 118.221 36.3516 117.693 36.3516C116.533 36.3516 115.443 36.1465 114.424 35.7363C113.404 35.3262 112.508 34.7461 111.734 33.9961C110.973 33.2344 110.369 32.3145 109.924 31.2363C109.49 30.1465 109.273 28.9277 109.273 27.5801V17.1738H114.055V27.5801C114.055 28.2129 114.148 28.7812 114.336 29.2852C114.535 29.7773 114.799 30.1934 115.127 30.5332C115.455 30.873 115.836 31.1309 116.27 31.3066C116.715 31.4824 117.189 31.5703 117.693 31.5703C118.186 31.5703 118.648 31.459 119.082 31.2363C119.527 31.002 119.914 30.6973 120.242 30.3223C120.57 29.9473 120.828 29.5254 121.016 29.0566C121.203 28.5762 121.297 28.084 121.297 27.5801V17.1738H126.096V36H124.936L123.354 33.8027ZM140.105 36H129.137V31.2188H140.105C140.434 31.2188 140.715 31.1016 140.949 30.8672C141.184 30.6328 141.301 30.3516 141.301 30.0234C141.301 29.6836 141.184 29.4609 140.949 29.3555C140.715 29.25 140.434 29.1973 140.105 29.1973H135.113C134.281 29.1973 133.502 29.0391 132.775 28.7227C132.049 28.4062 131.416 27.9785 130.877 27.4395C130.338 26.8887 129.91 26.25 129.594 25.5234C129.289 24.7969 129.137 24.0176 129.137 23.1855C129.137 22.3535 129.289 21.5742 129.594 20.8477C129.91 20.1211 130.338 19.4883 130.877 18.9492C131.416 18.4102 132.049 17.9883 132.775 17.6836C133.502 17.3672 134.281 17.209 135.113 17.209H144.834V21.9902H135.113C134.785 21.9902 134.504 22.1074 134.27 22.3418C134.035 22.5762 133.918 22.8574 133.918 23.1855C133.918 23.5254 134.035 23.8184 134.27 24.0645C134.504 24.2988 134.785 24.416 135.113 24.416H140.105C140.926 24.416 141.699 24.5566 142.426 24.8379C143.152 25.1074 143.785 25.4883 144.324 25.9805C144.863 26.4727 145.291 27.0645 145.607 27.7559C145.924 28.4473 146.082 29.2031 146.082 30.0234C146.082 30.8555 145.924 31.6348 145.607 32.3613C145.291 33.0762 144.863 33.709 144.324 34.2598C143.785 34.7988 143.152 35.2266 142.426 35.543C141.699 35.8477 140.926 36 140.105 36Z" fill="#FF7272"/>
<path d="M36.3503 19.4685C36.3503 11.4905 29.4992 5 21.0781 5C17.7837 5 14.6463 5.97826 12.0051 7.82888C9.41701 9.64237 7.52829 12.1276 6.54304 15.0159L6.51691 15.0924L5.85229 18.9886L1.64966 26.2089V28.9062H5.1458L6.55462 36.1972H14.4913L15.6888 41H33.8307L31.7308 29.8362C34.6741 27.1197 36.3503 23.3745 36.3503 19.4685ZM17.4506 38.8906L16.2531 34.0879H8.4106L7.00171 26.7968H3.87622V26.752L7.98867 19.6866L8.68751 15.5895C10.4559 10.5138 15.4247 7.10937 21.0781 7.10937C28.2716 7.10937 34.1238 12.6536 34.1238 19.4685C34.1238 23.185 32.2792 26.6653 29.3241 29.0642L31.1723 38.8906H17.4506Z" fill="black"/>
<path d="M30.6433 18.2439H28.4704C27.9859 15.2118 25.4493 12.8093 22.2487 12.351V10.291H20.0221V12.351C16.8214 12.8093 14.2848 15.2118 13.8003 18.2439H11.6274V20.3532H13.7999C14.2831 23.3868 16.8203 25.791 20.0221 26.2494V28.3061H22.2487V26.2494C25.4505 25.791 27.9878 23.3868 28.4709 20.3532H30.6434V18.2439H30.6433ZM22.2487 24.1041V22.2416H20.0221V24.1041C18.0508 23.6944 16.496 22.2211 16.0642 20.3532H18.0288V18.2439H16.065C16.4979 16.3776 18.0519 14.9058 20.0221 14.4963V16.3555H22.2487V14.4963C24.2188 14.9058 25.7729 16.3776 26.2058 18.2439H24.242V20.3532H26.2066C25.7747 22.2211 24.22 23.6944 22.2487 24.1041Z" fill="black"/>
</svg>
